# Blender v2.90.1 OBJ File: 'moveArrow.blend'
# www.blender.org
mtllib moveArrow.mtl
o Cylinder
v 0.000000 -1.094043 -0.304287
v 0.000000 1.094043 -0.304287
v 0.062824 -1.094043 -0.298440
v 0.062824 1.094043 -0.298440
v 0.123234 -1.094043 -0.281125
v 0.123234 1.094043 -0.281125
v 0.178909 -1.094043 -0.253006
v 0.178909 1.094043 -0.253006
v 0.227707 -1.094043 -0.215164
v 0.227707 1.094043 -0.215164
v 0.267756 -1.094043 -0.169053
v 0.267756 1.094043 -0.169053
v 0.297514 -1.094043 -0.116446
v 0.297514 1.094043 -0.116446
v 0.315839 -1.094043 -0.059364
v 0.315839 1.094043 -0.059364
v 0.322027 -1.094043 -0.000000
v 0.322027 1.094043 -0.000000
v 0.315839 -1.094043 0.059363
v 0.315839 1.094043 0.059363
v 0.297514 -1.094043 0.116445
v 0.297514 1.094043 0.116445
v 0.267756 -1.094043 0.169053
v 0.267756 1.094043 0.169053
v 0.227707 -1.094043 0.215163
v 0.227707 1.094043 0.215163
v 0.178909 -1.094043 0.253005
v 0.178909 1.094043 0.253005
v 0.123234 -1.094043 0.281124
v 0.123234 1.094043 0.281124
v 0.062824 -1.094043 0.298440
v 0.062824 1.094043 0.298440
v -0.000000 -1.094043 0.304287
v -0.000000 1.094043 0.304287
v -0.062824 -1.094043 0.298440
v -0.062824 1.094043 0.298440
v -0.123234 -1.094043 0.281124
v -0.123234 1.094043 0.281124
v -0.178909 -1.094043 0.253005
v -0.178909 1.094043 0.253005
v -0.227707 -1.094043 0.215163
v -0.227707 1.094043 0.215163
v -0.267756 -1.094043 0.169052
v -0.267756 1.094043 0.169052
v -0.297514 -1.094043 0.116445
v -0.297514 1.094043 0.116445
v -0.315839 -1.094043 0.059363
v -0.315839 1.094043 0.059363
v -0.322027 -1.094043 -0.000001
v -0.322027 1.094043 -0.000001
v -0.315839 -1.094043 -0.059364
v -0.315839 1.094043 -0.059364
v -0.297514 -1.094043 -0.116446
v -0.297514 1.094043 -0.116446
v -0.267755 -1.094043 -0.169053
v -0.267755 1.094043 -0.169053
v -0.227707 -1.094043 -0.215164
v -0.227707 1.094043 -0.215164
v -0.178908 -1.094043 -0.253006
v -0.178908 1.094043 -0.253006
v -0.123234 -1.094043 -0.281125
v -0.123234 1.094043 -0.281125
v -0.062824 -1.094043 -0.298440
v -0.062824 1.094043 -0.298440
v 0.000000 1.132172 -0.537081
v 0.105752 1.132172 -0.526761
v 0.207440 1.132172 -0.496198
v 0.301156 1.132172 -0.446566
v 0.383299 1.132172 -0.379773
v 0.450712 1.132172 -0.298386
v 0.500804 1.132172 -0.205532
v 0.531651 1.132172 -0.104779
v 0.542067 1.132172 -0.000000
v 0.531651 1.132172 0.104779
v 0.500804 1.132172 0.205532
v 0.450712 1.132172 0.298386
v 0.383299 1.132172 0.379773
v 0.301156 1.132172 0.446566
v 0.207440 1.132172 0.496198
v 0.105752 1.132172 0.526761
v -0.000000 1.132172 0.537080
v -0.105752 1.132172 0.526761
v -0.207440 1.132172 0.496198
v -0.301156 1.132172 0.446566
v -0.383299 1.132172 0.379773
v -0.450712 1.132172 0.298386
v -0.500804 1.132172 0.205531
v -0.531651 1.132172 0.104779
v -0.542066 1.132172 -0.000001
v -0.531651 1.132172 -0.104780
v -0.500804 1.132172 -0.205533
v -0.450711 1.132172 -0.298387
v -0.383298 1.132172 -0.379774
v -0.301155 1.132172 -0.446567
v -0.207439 1.132172 -0.496198
v -0.105751 1.132172 -0.526761
v 0.000000 1.999108 -0.000000
vt 1.000000 1.000000
vt 0.968750 0.500000
vt 1.000000 0.500000
vt 0.968750 1.000000
vt 0.937500 0.500000
vt 0.937500 1.000000
vt 0.906250 0.500000
vt 0.906250 1.000000
vt 0.875000 0.500000
vt 0.875000 1.000000
vt 0.843750 0.500000
vt 0.843750 1.000000
vt 0.812500 0.500000
vt 0.812500 1.000000
vt 0.781250 0.500000
vt 0.781250 1.000000
vt 0.750000 0.500000
vt 0.750000 1.000000
vt 0.718750 0.500000
vt 0.718750 1.000000
vt 0.687500 0.500000
vt 0.687500 1.000000
vt 0.656250 0.500000
vt 0.656250 1.000000
vt 0.625000 0.500000
vt 0.625000 1.000000
vt 0.593750 0.500000
vt 0.593750 1.000000
vt 0.562500 0.500000
vt 0.562500 1.000000
vt 0.531250 0.500000
vt 0.531250 1.000000
vt 0.500000 0.500000
vt 0.500000 1.000000
vt 0.468750 0.500000
vt 0.468750 1.000000
vt 0.437500 0.500000
vt 0.437500 1.000000
vt 0.406250 0.500000
vt 0.406250 1.000000
vt 0.375000 0.500000
vt 0.375000 1.000000
vt 0.343750 0.500000
vt 0.343750 1.000000
vt 0.312500 0.500000
vt 0.312500 1.000000
vt 0.281250 0.500000
vt 0.281250 1.000000
vt 0.250000 0.500000
vt 0.250000 1.000000
vt 0.218750 0.500000
vt 0.218750 1.000000
vt 0.187500 0.500000
vt 0.187500 1.000000
vt 0.156250 0.500000
vt 0.156250 1.000000
vt 0.125000 0.500000
vt 0.125000 1.000000
vt 0.093750 0.500000
vt 0.093750 1.000000
vt 0.062500 0.500000
vt 0.419706 0.419706
vt 0.383337 0.449553
vt 0.419706 0.080294
vt 0.062500 1.000000
vt 0.031250 0.500000
vt 0.031250 1.000000
vt 0.000000 0.500000
vt 0.616663 0.449553
vt 0.658156 0.471731
vt 0.616663 0.050447
vt 0.250000 0.490000
vt 0.250000 0.250000
vt 0.296822 0.485388
vt 0.341844 0.471731
vt 0.383337 0.449553
vt 0.419706 0.419706
vt 0.449553 0.383337
vt 0.471731 0.341844
vt 0.485388 0.296822
vt 0.490000 0.250000
vt 0.485388 0.203178
vt 0.471731 0.158156
vt 0.449553 0.116663
vt 0.419706 0.080294
vt 0.383337 0.050447
vt 0.341844 0.028269
vt 0.296822 0.014612
vt 0.250000 0.010000
vt 0.203178 0.014612
vt 0.158156 0.028269
vt 0.116663 0.050447
vt 0.080294 0.080294
vt 0.050447 0.116663
vt 0.028269 0.158156
vt 0.014611 0.203179
vt 0.010000 0.250000
vt 0.014612 0.296822
vt 0.028269 0.341844
vt 0.050447 0.383337
vt 0.080295 0.419706
vt 0.116663 0.449553
vt 0.158156 0.471731
vt 0.616663 0.449553
vt 0.658156 0.471731
vt 0.616663 0.050447
vt 0.203179 0.485389
vt 0.341844 0.471731
vt 0.296822 0.485388
vt 0.296822 0.014612
vt 0.250000 0.490000
vt 0.250000 0.010000
vt 0.203179 0.485389
vt 0.203178 0.014612
vt 0.158156 0.471731
vt 0.158156 0.028269
vt 0.116663 0.449553
vt 0.080295 0.419706
vt 0.116663 0.050447
vt 0.050447 0.383337
vt 0.080294 0.080294
vt 0.028269 0.341844
vt 0.050447 0.116663
vt 0.014612 0.296822
vt 0.014611 0.203179
vt 0.010000 0.250000
vt 0.028269 0.158156
vt 0.341844 0.028269
vt 0.383337 0.050447
vt 0.449553 0.116663
vt 0.471731 0.158156
vt 0.449553 0.383337
vt 0.485388 0.203178
vt 0.485388 0.296822
vt 0.490000 0.250000
vt 0.471731 0.341844
vt 0.000000 1.000000
vt 0.703179 0.485389
vt 0.750000 0.490000
vt 0.750000 0.010000
vt 0.796822 0.485388
vt 0.796822 0.014612
vt 0.841844 0.471731
vt 0.883337 0.449553
vt 0.841844 0.028269
vt 0.919706 0.419706
vt 0.919706 0.080294
vt 0.949553 0.383337
vt 0.949553 0.116663
vt 0.971731 0.341844
vt 0.985388 0.296822
vt 0.971731 0.158156
vt 0.990000 0.250000
vt 0.985388 0.203178
vt 0.883337 0.050447
vt 0.703178 0.014612
vt 0.658156 0.028269
vt 0.580294 0.080294
vt 0.580295 0.419706
vt 0.550447 0.116663
vt 0.550447 0.383337
vt 0.528269 0.158156
vt 0.514611 0.203179
vt 0.528269 0.341844
vt 0.510000 0.250000
vt 0.514612 0.296822
vt 0.703179 0.485389
vt 0.750000 0.490000
vt 0.750000 0.010000
vt 0.796822 0.485388
vt 0.796822 0.014612
vt 0.841844 0.471731
vt 0.883337 0.449553
vt 0.841844 0.028269
vt 0.919706 0.419706
vt 0.919706 0.080294
vt 0.949553 0.383337
vt 0.949553 0.116663
vt 0.971731 0.341844
vt 0.985388 0.296822
vt 0.971731 0.158156
vt 0.990000 0.250000
vt 0.985388 0.203178
vt 0.883337 0.050447
vt 0.703178 0.014612
vt 0.658156 0.028269
vt 0.580294 0.080294
vt 0.580295 0.419706
vt 0.550447 0.116663
vt 0.550447 0.383337
vt 0.528269 0.158156
vt 0.514611 0.203179
vt 0.528269 0.341844
vt 0.510000 0.250000
vt 0.514612 0.296822
vn 0.0927 0.0000 -0.9957
vn 0.2755 0.0000 -0.9613
vn 0.4508 0.0000 -0.8926
vn 0.6128 0.0000 -0.7902
vn 0.7550 0.0000 -0.6557
vn 0.8704 0.0000 -0.4924
vn 0.9521 0.0000 -0.3057
vn 0.9946 0.0000 -0.1037
vn 0.9946 0.0000 0.1037
vn 0.9521 0.0000 0.3057
vn 0.8704 0.0000 0.4924
vn 0.7550 0.0000 0.6557
vn 0.6128 0.0000 0.7902
vn 0.4508 0.0000 0.8926
vn 0.2755 0.0000 0.9613
vn 0.0927 0.0000 0.9957
vn -0.0927 0.0000 0.9957
vn -0.2755 0.0000 0.9613
vn -0.4508 0.0000 0.8926
vn -0.6128 0.0000 0.7902
vn -0.7550 0.0000 0.6557
vn -0.8704 0.0000 0.4924
vn -0.9521 0.0000 0.3057
vn -0.9946 0.0000 0.1037
vn -0.9946 0.0000 -0.1037
vn -0.9521 0.0000 -0.3057
vn -0.8704 0.0000 -0.4924
vn -0.7550 0.0000 -0.6557
vn -0.6128 0.0000 -0.7902
vn -0.4508 0.0000 -0.8926
vn 0.0000 1.0000 0.0000
vn -0.2755 0.0000 -0.9613
vn -0.0927 0.0000 -0.9957
vn 0.0000 -1.0000 0.0000
vn 0.0827 0.5248 -0.8472
vn 0.2450 0.5251 -0.8150
vn 0.3982 0.5256 -0.7518
vn 0.5365 0.5262 -0.6598
vn 0.6546 0.5269 -0.5422
vn 0.7477 0.5275 -0.4034
vn 0.8120 0.5280 -0.2486
vn 0.8449 0.5283 -0.0840
vn 0.8449 0.5283 0.0840
vn 0.8120 0.5280 0.2486
vn 0.7477 0.5275 0.4033
vn 0.6546 0.5269 0.5422
vn 0.5365 0.5262 0.6598
vn 0.3982 0.5256 0.7518
vn 0.2450 0.5251 0.8150
vn 0.0827 0.5248 0.8472
vn -0.0827 0.5248 0.8472
vn -0.2450 0.5251 0.8150
vn -0.3982 0.5256 0.7518
vn -0.5365 0.5262 0.6598
vn -0.6546 0.5269 0.5422
vn -0.7477 0.5275 0.4033
vn -0.8120 0.5280 0.2486
vn -0.8449 0.5283 0.0840
vn -0.8449 0.5283 -0.0840
vn -0.8120 0.5280 -0.2486
vn -0.7477 0.5275 -0.4034
vn -0.6545 0.5269 -0.5422
vn -0.5365 0.5262 -0.6598
vn -0.3982 0.5256 -0.7518
vn -0.2450 0.5251 -0.8150
vn -0.0827 0.5248 -0.8472
usemtl None
s off
f 2/1/1 3/2/1 1/3/1
f 4/4/2 5/5/2 3/2/2
f 6/6/3 7/7/3 5/5/3
f 8/8/4 9/9/4 7/7/4
f 10/10/5 11/11/5 9/9/5
f 12/12/6 13/13/6 11/11/6
f 14/14/7 15/15/7 13/13/7
f 16/16/8 17/17/8 15/15/8
f 18/18/9 19/19/9 17/17/9
f 20/20/10 21/21/10 19/19/10
f 22/22/11 23/23/11 21/21/11
f 24/24/12 25/25/12 23/23/12
f 26/26/13 27/27/13 25/25/13
f 28/28/14 29/29/14 27/27/14
f 30/30/15 31/31/15 29/29/15
f 32/32/16 33/33/16 31/31/16
f 34/34/17 35/35/17 33/33/17
f 36/36/18 37/37/18 35/35/18
f 38/38/19 39/39/19 37/37/19
f 40/40/20 41/41/20 39/39/20
f 42/42/21 43/43/21 41/41/21
f 44/44/22 45/45/22 43/43/22
f 46/46/23 47/47/23 45/45/23
f 48/48/24 49/49/24 47/47/24
f 50/50/25 51/51/25 49/49/25
f 52/52/26 53/53/26 51/51/26
f 54/54/27 55/55/27 53/53/27
f 56/56/28 57/57/28 55/55/28
f 58/58/29 59/59/29 57/57/29
f 60/60/30 61/61/30 59/59/30
f 10/62/31 8/63/31 26/64/31
f 62/65/32 63/66/32 61/61/32
f 64/67/33 1/68/33 63/66/33
f 59/69/34 61/70/34 39/71/34
f 65/72/35 97/73/35 66/74/35
f 66/74/36 97/73/36 67/75/36
f 67/75/37 97/73/37 68/76/37
f 68/76/38 97/73/38 69/77/38
f 69/77/39 97/73/39 70/78/39
f 70/78/40 97/73/40 71/79/40
f 71/79/41 97/73/41 72/80/41
f 72/80/42 97/73/42 73/81/42
f 73/81/43 97/73/43 74/82/43
f 74/82/44 97/73/44 75/83/44
f 75/83/45 97/73/45 76/84/45
f 76/84/46 97/73/46 77/85/46
f 77/85/47 97/73/47 78/86/47
f 78/86/48 97/73/48 79/87/48
f 79/87/49 97/73/49 80/88/49
f 80/88/50 97/73/50 81/89/50
f 81/89/51 97/73/51 82/90/51
f 82/90/52 97/73/52 83/91/52
f 83/91/53 97/73/53 84/92/53
f 84/92/54 97/73/54 85/93/54
f 85/93/55 97/73/55 86/94/55
f 86/94/56 97/73/56 87/95/56
f 87/95/57 97/73/57 88/96/57
f 88/96/58 97/73/58 89/97/58
f 89/97/59 97/73/59 90/98/59
f 90/98/60 97/73/60 91/99/60
f 91/99/61 97/73/61 92/100/61
f 92/100/62 97/73/62 93/101/62
f 93/101/63 97/73/63 94/102/63
f 94/102/64 97/73/64 95/103/64
f 94/104/34 95/105/34 84/106/34
f 95/103/65 97/73/65 96/107/65
f 96/107/66 97/73/66 65/72/66
f 2/1/1 4/4/1 3/2/1
f 4/4/2 6/6/2 5/5/2
f 6/6/3 8/8/3 7/7/3
f 8/8/4 10/10/4 9/9/4
f 10/10/5 12/12/5 11/11/5
f 12/12/6 14/14/6 13/13/6
f 14/14/7 16/16/7 15/15/7
f 16/16/8 18/18/8 17/17/8
f 18/18/9 20/20/9 19/19/9
f 20/20/10 22/22/10 21/21/10
f 22/22/11 24/24/11 23/23/11
f 24/24/12 26/26/12 25/25/12
f 26/26/13 28/28/13 27/27/13
f 28/28/14 30/30/14 29/29/14
f 30/30/15 32/32/15 31/31/15
f 32/32/16 34/34/16 33/33/16
f 34/34/17 36/36/17 35/35/17
f 36/36/18 38/38/18 37/37/18
f 38/38/19 40/40/19 39/39/19
f 40/40/20 42/42/20 41/41/20
f 42/42/21 44/44/21 43/43/21
f 44/44/22 46/46/22 45/45/22
f 46/46/23 48/48/23 47/47/23
f 48/48/24 50/50/24 49/49/24
f 50/50/25 52/52/25 51/51/25
f 52/52/26 54/54/26 53/53/26
f 54/54/27 56/56/27 55/55/27
f 56/56/28 58/58/28 57/57/28
f 58/58/29 60/60/29 59/59/29
f 60/60/30 62/65/30 61/61/30
f 6/108/31 4/109/31 32/110/31
f 4/109/31 2/111/31 34/112/31
f 2/111/31 64/113/31 36/114/31
f 64/113/31 62/115/31 38/116/31
f 62/115/31 60/117/31 38/116/31
f 60/117/31 58/118/31 40/119/31
f 38/116/31 60/117/31 40/119/31
f 58/118/31 56/120/31 42/121/31
f 56/120/31 54/122/31 44/123/31
f 42/121/31 56/120/31 44/123/31
f 54/122/31 52/124/31 48/125/31
f 52/124/31 50/126/31 48/125/31
f 48/125/31 46/127/31 54/122/31
f 46/127/31 44/123/31 54/122/31
f 42/121/31 40/119/31 58/118/31
f 38/116/31 36/114/31 64/113/31
f 36/114/31 34/112/31 2/111/31
f 34/112/31 32/110/31 4/109/31
f 32/110/31 30/128/31 6/108/31
f 30/128/31 28/129/31 6/108/31
f 28/129/31 26/64/31 8/63/31
f 6/108/31 28/129/31 8/63/31
f 26/64/31 24/130/31 10/62/31
f 24/130/31 22/131/31 12/132/31
f 10/62/31 24/130/31 12/132/31
f 22/131/31 20/133/31 16/134/31
f 20/133/31 18/135/31 16/134/31
f 16/134/31 14/136/31 22/131/31
f 14/136/31 12/132/31 22/131/31
f 62/65/32 64/67/32 63/66/32
f 64/67/33 2/137/33 1/68/33
f 63/138/34 1/139/34 33/140/34
f 1/139/34 3/141/34 31/142/34
f 3/141/34 5/143/34 31/142/34
f 5/143/34 7/144/34 29/145/34
f 31/142/34 5/143/34 29/145/34
f 7/144/34 9/146/34 25/147/34
f 9/146/34 11/148/34 23/149/34
f 11/148/34 13/150/34 23/149/34
f 13/150/34 15/151/34 21/152/34
f 23/149/34 13/150/34 21/152/34
f 15/151/34 17/153/34 19/154/34
f 19/154/34 21/152/34 15/151/34
f 23/149/34 25/147/34 9/146/34
f 25/147/34 27/155/34 7/144/34
f 27/155/34 29/145/34 7/144/34
f 31/142/34 33/140/34 1/139/34
f 33/140/34 35/156/34 63/138/34
f 35/156/34 37/157/34 63/138/34
f 37/157/34 39/71/34 61/70/34
f 63/138/34 37/157/34 61/70/34
f 39/71/34 41/158/34 57/159/34
f 41/158/34 43/160/34 55/161/34
f 43/160/34 45/162/34 55/161/34
f 45/162/34 47/163/34 53/164/34
f 55/161/34 45/162/34 53/164/34
f 47/163/34 49/165/34 51/166/34
f 51/166/34 53/164/34 47/163/34
f 55/161/34 57/159/34 41/158/34
f 57/159/34 59/69/34 39/71/34
f 96/167/34 65/168/34 81/169/34
f 65/168/34 66/170/34 80/171/34
f 66/170/34 67/172/34 80/171/34
f 67/172/34 68/173/34 79/174/34
f 80/171/34 67/172/34 79/174/34
f 68/173/34 69/175/34 77/176/34
f 69/175/34 70/177/34 76/178/34
f 70/177/34 71/179/34 76/178/34
f 71/179/34 72/180/34 75/181/34
f 76/178/34 71/179/34 75/181/34
f 72/180/34 73/182/34 74/183/34
f 74/183/34 75/181/34 72/180/34
f 76/178/34 77/176/34 69/175/34
f 77/176/34 78/184/34 68/173/34
f 78/184/34 79/174/34 68/173/34
f 80/171/34 81/169/34 65/168/34
f 81/169/34 82/185/34 96/167/34
f 82/185/34 83/186/34 96/167/34
f 83/186/34 84/106/34 95/105/34
f 96/167/34 83/186/34 95/105/34
f 84/106/34 85/187/34 93/188/34
f 85/187/34 86/189/34 92/190/34
f 86/189/34 87/191/34 92/190/34
f 87/191/34 88/192/34 91/193/34
f 92/190/34 87/191/34 91/193/34
f 88/192/34 89/194/34 90/195/34
f 90/195/34 91/193/34 88/192/34
f 92/190/34 93/188/34 85/187/34
f 93/188/34 94/104/34 84/106/34
