# Blender v2.90.1 OBJ File: 'scaleArrow.blend'
# www.blender.org
mtllib scaleArrow.mtl
o Cube
v -0.417947 1.000291 0.457800
v -0.417947 1.744761 0.457800
v -0.417947 1.000291 -0.457800
v -0.417947 1.744761 -0.457800
v 0.417947 1.000291 0.457800
v 0.417947 1.744761 0.457800
v 0.417947 1.000291 -0.457800
v 0.417947 1.744761 -0.457800
v 0.000000 -1.094043 -0.304287
v 0.000000 1.094043 -0.304287
v 0.062824 -1.094043 -0.298440
v 0.062824 1.094043 -0.298440
v 0.123234 -1.094043 -0.281125
v 0.123234 1.094043 -0.281125
v 0.178909 -1.094043 -0.253006
v 0.178909 1.094043 -0.253006
v 0.227707 -1.094043 -0.215164
v 0.227707 1.094043 -0.215164
v 0.267756 -1.094043 -0.169053
v 0.267756 1.094043 -0.169053
v 0.297514 -1.094043 -0.116446
v 0.297514 1.094043 -0.116446
v 0.315839 -1.094043 -0.059364
v 0.315839 1.094043 -0.059364
v 0.322027 -1.094043 -0.000000
v 0.322027 1.094043 -0.000000
v 0.315839 -1.094043 0.059363
v 0.315839 1.094043 0.059363
v 0.297514 -1.094043 0.116445
v 0.297514 1.094043 0.116445
v 0.267756 -1.094043 0.169053
v 0.267756 1.094043 0.169053
v 0.227707 -1.094043 0.215163
v 0.227707 1.094043 0.215163
v 0.178909 -1.094043 0.253005
v 0.178909 1.094043 0.253005
v 0.123234 -1.094043 0.281124
v 0.123234 1.094043 0.281124
v 0.062824 -1.094043 0.298440
v 0.062824 1.094043 0.298440
v -0.000000 -1.094043 0.304287
v -0.000000 1.094043 0.304287
v -0.062824 -1.094043 0.298440
v -0.062824 1.094043 0.298440
v -0.123234 -1.094043 0.281124
v -0.123234 1.094043 0.281124
v -0.178909 -1.094043 0.253005
v -0.178909 1.094043 0.253005
v -0.227707 -1.094043 0.215163
v -0.227707 1.094043 0.215163
v -0.267756 -1.094043 0.169052
v -0.267756 1.094043 0.169052
v -0.297514 -1.094043 0.116445
v -0.297514 1.094043 0.116445
v -0.315839 -1.094043 0.059363
v -0.315839 1.094043 0.059363
v -0.322027 -1.094043 -0.000001
v -0.322027 1.094043 -0.000001
v -0.315839 -1.094043 -0.059364
v -0.315839 1.094043 -0.059364
v -0.297514 -1.094043 -0.116446
v -0.297514 1.094043 -0.116446
v -0.267755 -1.094043 -0.169053
v -0.267755 1.094043 -0.169053
v -0.227707 -1.094043 -0.215164
v -0.227707 1.094043 -0.215164
v -0.178908 -1.094043 -0.253006
v -0.178908 1.094043 -0.253006
v -0.123234 -1.094043 -0.281125
v -0.123234 1.094043 -0.281125
v -0.062824 -1.094043 -0.298440
v -0.062824 1.094043 -0.298440
vt 0.625000 0.000000
vt 0.375000 0.250000
vt 0.375000 0.000000
vt 0.625000 0.250000
vt 0.375000 0.500000
vt 0.625000 0.500000
vt 0.375000 0.750000
vt 0.625000 0.750000
vt 0.375000 1.000000
vt 0.125000 0.750000
vt 0.125000 0.500000
vt 0.875000 0.500000
vt 1.000000 1.000000
vt 0.968750 0.500000
vt 1.000000 0.500000
vt 0.968750 1.000000
vt 0.937500 0.500000
vt 0.937500 1.000000
vt 0.906250 0.500000
vt 0.906250 1.000000
vt 0.875000 0.500000
vt 0.875000 1.000000
vt 0.843750 0.500000
vt 0.843750 1.000000
vt 0.812500 0.500000
vt 0.812500 1.000000
vt 0.781250 0.500000
vt 0.781250 1.000000
vt 0.750000 0.500000
vt 0.750000 1.000000
vt 0.718750 0.500000
vt 0.718750 1.000000
vt 0.687500 0.500000
vt 0.687500 1.000000
vt 0.656250 0.500000
vt 0.656250 1.000000
vt 0.625000 0.500000
vt 0.625000 1.000000
vt 0.593750 0.500000
vt 0.593750 1.000000
vt 0.562500 0.500000
vt 0.562500 1.000000
vt 0.531250 0.500000
vt 0.531250 1.000000
vt 0.500000 0.500000
vt 0.500000 1.000000
vt 0.468750 0.500000
vt 0.468750 1.000000
vt 0.437500 0.500000
vt 0.437500 1.000000
vt 0.406250 0.500000
vt 0.406250 1.000000
vt 0.375000 0.500000
vt 0.375000 1.000000
vt 0.343750 0.500000
vt 0.343750 1.000000
vt 0.312500 0.500000
vt 0.312500 1.000000
vt 0.281250 0.500000
vt 0.281250 1.000000
vt 0.250000 0.500000
vt 0.250000 1.000000
vt 0.218750 0.500000
vt 0.218750 1.000000
vt 0.187500 0.500000
vt 0.187500 1.000000
vt 0.156250 0.500000
vt 0.156250 1.000000
vt 0.125000 0.500000
vt 0.125000 1.000000
vt 0.093750 0.500000
vt 0.093750 1.000000
vt 0.062500 0.500000
vt 0.419706 0.419706
vt 0.383337 0.449553
vt 0.419706 0.080294
vt 0.062500 1.000000
vt 0.031250 0.500000
vt 0.031250 1.000000
vt 0.000000 0.500000
vt 0.616663 0.449553
vt 0.658156 0.471731
vt 0.616663 0.050447
vt 0.625000 1.000000
vt 0.875000 0.750000
vt 0.341844 0.471731
vt 0.296822 0.485388
vt 0.296822 0.014612
vt 0.250000 0.490000
vt 0.250000 0.010000
vt 0.203179 0.485389
vt 0.203178 0.014612
vt 0.158156 0.471731
vt 0.158156 0.028269
vt 0.116663 0.449553
vt 0.080295 0.419706
vt 0.116663 0.050447
vt 0.050447 0.383337
vt 0.080294 0.080294
vt 0.028269 0.341844
vt 0.050447 0.116663
vt 0.014612 0.296822
vt 0.014611 0.203179
vt 0.010000 0.250000
vt 0.028269 0.158156
vt 0.341844 0.028269
vt 0.383337 0.050447
vt 0.449553 0.116663
vt 0.471731 0.158156
vt 0.449553 0.383337
vt 0.485388 0.203178
vt 0.485388 0.296822
vt 0.490000 0.250000
vt 0.471731 0.341844
vt 0.000000 1.000000
vt 0.703179 0.485389
vt 0.750000 0.490000
vt 0.750000 0.010000
vt 0.796822 0.485388
vt 0.796822 0.014612
vt 0.841844 0.471731
vt 0.883337 0.449553
vt 0.841844 0.028269
vt 0.919706 0.419706
vt 0.919706 0.080294
vt 0.949553 0.383337
vt 0.949553 0.116663
vt 0.971731 0.341844
vt 0.985388 0.296822
vt 0.971731 0.158156
vt 0.990000 0.250000
vt 0.985388 0.203178
vt 0.883337 0.050447
vt 0.703178 0.014612
vt 0.658156 0.028269
vt 0.580294 0.080294
vt 0.580295 0.419706
vt 0.550447 0.116663
vt 0.550447 0.383337
vt 0.528269 0.158156
vt 0.514611 0.203179
vt 0.528269 0.341844
vt 0.510000 0.250000
vt 0.514612 0.296822
vn -1.0000 0.0000 0.0000
vn 0.0000 0.0000 -1.0000
vn 1.0000 0.0000 0.0000
vn 0.0000 0.0000 1.0000
vn 0.0000 -1.0000 0.0000
vn 0.0000 1.0000 0.0000
vn 0.0927 0.0000 -0.9957
vn 0.2755 0.0000 -0.9613
vn 0.4508 0.0000 -0.8926
vn 0.6128 0.0000 -0.7902
vn 0.7550 0.0000 -0.6557
vn 0.8704 0.0000 -0.4924
vn 0.9521 0.0000 -0.3057
vn 0.9946 0.0000 -0.1037
vn 0.9946 0.0000 0.1037
vn 0.9521 0.0000 0.3057
vn 0.8704 0.0000 0.4924
vn 0.7550 0.0000 0.6557
vn 0.6128 0.0000 0.7902
vn 0.4508 0.0000 0.8926
vn 0.2755 0.0000 0.9613
vn 0.0927 0.0000 0.9957
vn -0.0927 0.0000 0.9957
vn -0.2755 0.0000 0.9613
vn -0.4508 0.0000 0.8926
vn -0.6128 0.0000 0.7902
vn -0.7550 0.0000 0.6557
vn -0.8704 0.0000 0.4924
vn -0.9521 0.0000 0.3057
vn -0.9946 0.0000 0.1037
vn -0.9946 0.0000 -0.1037
vn -0.9521 0.0000 -0.3057
vn -0.8704 0.0000 -0.4924
vn -0.7550 0.0000 -0.6557
vn -0.6128 0.0000 -0.7902
vn -0.4508 0.0000 -0.8926
vn -0.2755 0.0000 -0.9613
vn -0.0927 0.0000 -0.9957
usemtl None
s off
f 2/1/1 3/2/1 1/3/1
f 4/4/2 7/5/2 3/2/2
f 8/6/3 5/7/3 7/5/3
f 6/8/4 1/9/4 5/7/4
f 7/5/5 1/10/5 3/11/5
f 4/12/6 6/8/6 8/6/6
f 10/13/7 11/14/7 9/15/7
f 12/16/8 13/17/8 11/14/8
f 14/18/9 15/19/9 13/17/9
f 16/20/10 17/21/10 15/19/10
f 18/22/11 19/23/11 17/21/11
f 20/24/12 21/25/12 19/23/12
f 22/26/13 23/27/13 21/25/13
f 24/28/14 25/29/14 23/27/14
f 26/30/15 27/31/15 25/29/15
f 28/32/16 29/33/16 27/31/16
f 30/34/17 31/35/17 29/33/17
f 32/36/18 33/37/18 31/35/18
f 34/38/19 35/39/19 33/37/19
f 36/40/20 37/41/20 35/39/20
f 38/42/21 39/43/21 37/41/21
f 40/44/22 41/45/22 39/43/22
f 42/46/23 43/47/23 41/45/23
f 44/48/24 45/49/24 43/47/24
f 46/50/25 47/51/25 45/49/25
f 48/52/26 49/53/26 47/51/26
f 50/54/27 51/55/27 49/53/27
f 52/56/28 53/57/28 51/55/28
f 54/58/29 55/59/29 53/57/29
f 56/60/30 57/61/30 55/59/30
f 58/62/31 59/63/31 57/61/31
f 60/64/32 61/65/32 59/63/32
f 62/66/33 63/67/33 61/65/33
f 64/68/34 65/69/34 63/67/34
f 66/70/35 67/71/35 65/69/35
f 68/72/36 69/73/36 67/71/36
f 18/74/6 16/75/6 34/76/6
f 70/77/37 71/78/37 69/73/37
f 72/79/38 9/80/38 71/78/38
f 67/81/5 69/82/5 47/83/5
f 2/1/1 4/4/1 3/2/1
f 4/4/2 8/6/2 7/5/2
f 8/6/3 6/8/3 5/7/3
f 6/8/4 2/84/4 1/9/4
f 7/5/5 5/7/5 1/10/5
f 4/12/6 2/85/6 6/8/6
f 10/13/7 12/16/7 11/14/7
f 12/16/8 14/18/8 13/17/8
f 14/18/9 16/20/9 15/19/9
f 16/20/10 18/22/10 17/21/10
f 18/22/11 20/24/11 19/23/11
f 20/24/12 22/26/12 21/25/12
f 22/26/13 24/28/13 23/27/13
f 24/28/14 26/30/14 25/29/14
f 26/30/15 28/32/15 27/31/15
f 28/32/16 30/34/16 29/33/16
f 30/34/17 32/36/17 31/35/17
f 32/36/18 34/38/18 33/37/18
f 34/38/19 36/40/19 35/39/19
f 36/40/20 38/42/20 37/41/20
f 38/42/21 40/44/21 39/43/21
f 40/44/22 42/46/22 41/45/22
f 42/46/23 44/48/23 43/47/23
f 44/48/24 46/50/24 45/49/24
f 46/50/25 48/52/25 47/51/25
f 48/52/26 50/54/26 49/53/26
f 50/54/27 52/56/27 51/55/27
f 52/56/28 54/58/28 53/57/28
f 54/58/29 56/60/29 55/59/29
f 56/60/30 58/62/30 57/61/30
f 58/62/31 60/64/31 59/63/31
f 60/64/32 62/66/32 61/65/32
f 62/66/33 64/68/33 63/67/33
f 64/68/34 66/70/34 65/69/34
f 66/70/35 68/72/35 67/71/35
f 68/72/36 70/77/36 69/73/36
f 14/86/6 12/87/6 40/88/6
f 12/87/6 10/89/6 42/90/6
f 10/89/6 72/91/6 44/92/6
f 72/91/6 70/93/6 46/94/6
f 70/93/6 68/95/6 46/94/6
f 68/95/6 66/96/6 48/97/6
f 46/94/6 68/95/6 48/97/6
f 66/96/6 64/98/6 50/99/6
f 64/98/6 62/100/6 52/101/6
f 50/99/6 64/98/6 52/101/6
f 62/100/6 60/102/6 56/103/6
f 60/102/6 58/104/6 56/103/6
f 56/103/6 54/105/6 62/100/6
f 54/105/6 52/101/6 62/100/6
f 50/99/6 48/97/6 66/96/6
f 46/94/6 44/92/6 72/91/6
f 44/92/6 42/90/6 10/89/6
f 42/90/6 40/88/6 12/87/6
f 40/88/6 38/106/6 14/86/6
f 38/106/6 36/107/6 14/86/6
f 36/107/6 34/76/6 16/75/6
f 14/86/6 36/107/6 16/75/6
f 34/76/6 32/108/6 18/74/6
f 32/108/6 30/109/6 20/110/6
f 18/74/6 32/108/6 20/110/6
f 30/109/6 28/111/6 24/112/6
f 28/111/6 26/113/6 24/112/6
f 24/112/6 22/114/6 30/109/6
f 22/114/6 20/110/6 30/109/6
f 70/77/37 72/79/37 71/78/37
f 72/79/38 10/115/38 9/80/38
f 71/116/5 9/117/5 41/118/5
f 9/117/5 11/119/5 39/120/5
f 11/119/5 13/121/5 39/120/5
f 13/121/5 15/122/5 37/123/5
f 39/120/5 13/121/5 37/123/5
f 15/122/5 17/124/5 33/125/5
f 17/124/5 19/126/5 31/127/5
f 19/126/5 21/128/5 31/127/5
f 21/128/5 23/129/5 29/130/5
f 31/127/5 21/128/5 29/130/5
f 23/129/5 25/131/5 27/132/5
f 27/132/5 29/130/5 23/129/5
f 31/127/5 33/125/5 17/124/5
f 33/125/5 35/133/5 15/122/5
f 35/133/5 37/123/5 15/122/5
f 39/120/5 41/118/5 9/117/5
f 41/118/5 43/134/5 71/116/5
f 43/134/5 45/135/5 71/116/5
f 45/135/5 47/83/5 69/82/5
f 71/116/5 45/135/5 69/82/5
f 47/83/5 49/136/5 65/137/5
f 49/136/5 51/138/5 63/139/5
f 51/138/5 53/140/5 63/139/5
f 53/140/5 55/141/5 61/142/5
f 63/139/5 53/140/5 61/142/5
f 55/141/5 57/143/5 59/144/5
f 59/144/5 61/142/5 55/141/5
f 63/139/5 65/137/5 49/136/5
f 65/137/5 67/81/5 47/83/5
