# Blender v2.82 (sub 7) OBJ File: ''
# www.blender.org
mtllib woodenFloor.mtl
o Cube
v 303.967163 0.095588 -230.844727
v 303.967163 -0.095588 -230.844727
v 303.967163 0.095588 230.844727
v 303.967163 -0.095588 230.844727
v -303.967163 0.095588 -230.844727
v -303.967163 -0.095588 -230.844727
v -303.967163 0.095588 230.844727
v -303.967163 -0.095588 230.844727
vt 4.974045 0.500000
vt 1.994848 3.217284
vt 1.994848 0.500000
vt -0.984349 5.934568
vt -0.984349 3.217284
vt 1.994848 -4.934568
vt -0.984349 -2.217284
vt -0.984349 -4.934568
vt -0.984349 0.500000
vt -3.963546 3.217284
vt -3.963546 0.500000
vt 1.994848 -2.217284
vt 4.974045 3.217284
vt 1.994848 5.934568
vn 0.0000 1.0000 0.0000
vn 0.0000 0.0000 1.0000
vn -1.0000 0.0000 0.0000
vn 0.0000 -1.0000 0.0000
vn 1.0000 0.0000 0.0000
vn 0.0000 0.0000 -1.0000
usemtl Material.003
s off
f 5/1/1 3/2/1 1/3/1
f 3/2/2 8/4/2 4/5/2
f 7/6/3 6/7/3 8/8/3
f 2/9/4 8/10/4 6/11/4
f 1/3/5 4/5/5 2/9/5
f 5/12/6 2/9/6 6/7/6
f 5/1/1 7/13/1 3/2/1
f 3/2/2 7/14/2 8/4/2
f 7/6/3 5/12/3 6/7/3
f 2/9/4 4/5/4 8/10/4
f 1/3/5 3/2/5 4/5/5
f 5/12/6 1/3/6 2/9/6
